<svg xmlns="http://www.w3.org/2000/svg" viewBox="0 0 51.39 8.78"><defs><style>.cls-1{fill:#fff;}</style></defs><title>Asset 2</title><g id="Layer_2" data-name="Layer 2"><g id="Layer_1-2" data-name="Layer 1"><path class="cls-1" d="M6,.13V6.9c0,.66,0,1.35.05,1.75H4.45l-.08-.87h0a2,2,0,0,1-1.83,1C1.12,8.78,0,7.59,0,5.77c0-2,1.22-3.12,2.63-3.12a1.76,1.76,0,0,1,1.54.66h0V.13ZM4.2,5.27a1.84,1.84,0,0,0,0-.33A1.09,1.09,0,0,0,3.11,4c-.83,0-1.26.75-1.26,1.67s.49,1.62,1.24,1.62a1.07,1.07,0,0,0,1.06-.88A1.38,1.38,0,0,0,4.2,6Z"/><path class="cls-1" d="M8.89,6.3c.06.75.8,1.11,1.66,1.11a5.11,5.11,0,0,0,1.62-.24l.23,1.24a5.73,5.73,0,0,1-2.12.37,2.82,2.82,0,0,1-3.13-3,2.94,2.94,0,0,1,3-3.13c1.9,0,2.62,1.48,2.62,2.93a4.83,4.83,0,0,1-.06.72ZM11,5.05a1.06,1.06,0,0,0-1-1.19A1.2,1.2,0,0,0,8.88,5.05Z"/><path class="cls-1" d="M15.11,2.78l.79,2.73a13.15,13.15,0,0,1,.33,1.42h0c.1-.48.19-.92.32-1.42l.76-2.73h1.92L17.09,8.65H15.26L13.13,2.78Z"/><path class="cls-1" d="M24.33,8.5a4.23,4.23,0,0,1-1.63.28,2.85,2.85,0,0,1-3.1-3A3.05,3.05,0,0,1,23,2.65a4.05,4.05,0,0,1,1.39.23l-.28,1.35a2.62,2.62,0,0,0-1-.18A1.52,1.52,0,0,0,21.47,5.7a1.52,1.52,0,0,0,1.6,1.64,2.59,2.59,0,0,0,1.05-.19Z"/><path class="cls-1" d="M36.05,8.65V4.13H34.17V8.65H32.34V4.13h-.77V2.78h.77V2.7A2.66,2.66,0,0,1,33,.8a2.49,2.49,0,0,1,1.8-.63,2.34,2.34,0,0,1,.78.13l-.25,1.36a1.45,1.45,0,0,0-.47-.09c-.54,0-.71.45-.71,1v.18h1.89V2.55a2.66,2.66,0,0,1,.74-2A2.36,2.36,0,0,1,38.41,0a3.65,3.65,0,0,1,1,.12l-.07,1.4a2.42,2.42,0,0,0-.6-.08c-.6,0-.85.47-.85,1v.3H39V4.13H37.87V8.65Z"/><path class="cls-1" d="M41.22,6.3c.06.75.8,1.11,1.65,1.11a5,5,0,0,0,1.62-.24l.24,1.24a5.77,5.77,0,0,1-2.12.37,2.82,2.82,0,0,1-3.13-3,2.93,2.93,0,0,1,3-3.13c1.9,0,2.62,1.48,2.62,2.93A4.83,4.83,0,0,1,45,6.3Zm2.14-1.25a1.06,1.06,0,0,0-1-1.19,1.19,1.19,0,0,0-1.12,1.19Z"/><path class="cls-1" d="M47.55,6.3c.06.75.81,1.11,1.66,1.11a5.06,5.06,0,0,0,1.62-.24l.24,1.24A5.77,5.77,0,0,1,49,8.78a2.83,2.83,0,0,1-3.14-3,2.94,2.94,0,0,1,3-3.13c1.89,0,2.61,1.48,2.61,2.93a3.76,3.76,0,0,1-.06.72ZM49.7,5.05a1.06,1.06,0,0,0-1-1.19,1.2,1.2,0,0,0-1.13,1.19Z"/><path class="cls-1" d="M24.9,3.5a2.28,2.28,0,0,0,0,.26,2.87,2.87,0,0,0,3,3A2.94,2.94,0,0,0,31,3.65s0-.1,0-.15Z"/><rect class="cls-1" x="24.94" y="7.5" width="6" height="1"/></g></g></svg>